<svg width="44" height="44" viewBox="0 0 44 44" fill="none" xmlns="http://www.w3.org/2000/svg">
<path fill-rule="evenodd" clip-rule="evenodd" d="M28.6667 23.6665C28.6667 27.3484 25.6819 30.3332 22 30.3332C18.3181 30.3332 15.3334 27.3484 15.3334 23.6665C15.3334 19.9846 18.3181 16.9999 22 16.9999C23.7682 16.9999 25.4638 17.7023 26.7141 18.9525C27.9643 20.2027 28.6667 21.8984 28.6667 23.6665Z" stroke="#3C3C43" stroke-opacity="0.3" stroke-width="2.5" stroke-linecap="round" stroke-linejoin="round"/>
<path d="M17 13.2499C17.6904 13.2499 18.25 12.6903 18.25 11.9999C18.25 11.3096 17.6904 10.7499 17 10.7499V13.2499ZM27 10.7499C26.3097 10.7499 25.75 11.3096 25.75 11.9999C25.75 12.6903 26.3097 13.2499 27 13.2499V10.7499ZM17.0001 10.75C16.3097 10.75 15.7501 11.3096 15.7501 12C15.7501 12.6903 16.3097 13.25 17.0001 13.25V10.75ZM27.0001 13.25C27.6904 13.25 28.2501 12.6903 28.2501 12C28.2501 11.3096 27.6904 10.75 27.0001 10.75V13.25ZM18.2501 11.9999C18.2501 11.3096 17.6905 10.7499 17.0001 10.7499C16.3098 10.7499 15.7501 11.3096 15.7501 11.9999H18.2501ZM15.7501 13.6666C15.7501 14.3569 16.3098 14.9166 17.0001 14.9166C17.6905 14.9166 18.2501 14.3569 18.2501 13.6666H15.7501ZM15.7501 12C15.7501 12.6903 16.3098 13.25 17.0001 13.25C17.6905 13.25 18.2501 12.6903 18.2501 12H15.7501ZM18.2501 8.66663C18.2501 7.97627 17.6905 7.41663 17.0001 7.41663C16.3098 7.41663 15.7501 7.97627 15.7501 8.66663H18.2501ZM28.2501 11.9999C28.2501 11.3096 27.6905 10.7499 27.0001 10.7499C26.3098 10.7499 25.7501 11.3096 25.7501 11.9999H28.2501ZM25.7501 13.6666C25.7501 14.3569 26.3098 14.9166 27.0001 14.9166C27.6905 14.9166 28.2501 14.3569 28.2501 13.6666H25.7501ZM25.7501 12C25.7501 12.6903 26.3098 13.25 27.0001 13.25C27.6905 13.25 28.2501 12.6903 28.2501 12H25.7501ZM28.2501 8.66663C28.2501 7.97627 27.6905 7.41663 27.0001 7.41663C26.3098 7.41663 25.7501 7.97627 25.7501 8.66663H28.2501ZM22.2983 21.7617C22.2983 21.0714 21.7386 20.5117 21.0483 20.5117C20.3579 20.5117 19.7983 21.0714 19.7983 21.7617H22.2983ZM21.0483 24.6184H19.7983C19.7983 25.3088 20.3579 25.8684 21.0483 25.8684V24.6184ZM23.905 25.8684C24.5953 25.8684 25.155 25.3088 25.155 24.6184C25.155 23.928 24.5953 23.3684 23.905 23.3684V25.8684ZM17 10.7499C12.6278 10.7499 9.08337 14.2943 9.08337 18.6666H11.5834C11.5834 15.675 14.0085 13.2499 17 13.2499V10.7499ZM9.08337 18.6666V28.6666H11.5834V18.6666H9.08337ZM9.08337 28.6666C9.08337 33.0388 12.6278 36.5833 17 36.5833V34.0833C14.0085 34.0833 11.5834 31.6581 11.5834 28.6666H9.08337ZM17 36.5833H27V34.0833H17V36.5833ZM27 36.5833C31.3723 36.5833 34.9167 33.0388 34.9167 28.6666H32.4167C32.4167 31.6581 29.9916 34.0833 27 34.0833V36.5833ZM34.9167 28.6666V18.6666H32.4167V28.6666H34.9167ZM34.9167 18.6666C34.9167 14.2943 31.3723 10.7499 27 10.7499V13.2499C29.9916 13.2499 32.4167 15.675 32.4167 18.6666H34.9167ZM17.0001 13.25H27.0001V10.75H17.0001V13.25ZM15.7501 11.9999V13.6666H18.2501V11.9999H15.7501ZM18.2501 12V8.66663H15.7501V12H18.2501ZM25.7501 11.9999V13.6666H28.2501V11.9999H25.7501ZM28.2501 12V8.66663H25.7501V12H28.2501ZM19.7983 21.7617V24.6184H22.2983V21.7617H19.7983ZM21.0483 25.8684H23.905V23.3684H21.0483V25.8684Z" fill="#3C3C43" fill-opacity="0.3"/>
</svg>
