<svg width="44" height="44" viewBox="0 0 44 44" fill="none" xmlns="http://www.w3.org/2000/svg">
<path d="M31.2816 19.0084C31.4716 19.6721 32.1636 20.0561 32.8273 19.8661C33.491 19.6761 33.875 18.9841 33.685 18.3204L31.2816 19.0084ZM29.65 13.7477L30.5502 12.8804L30.5492 12.8794L29.65 13.7477ZM23.8516 10.556L24.1042 9.33183L24.1019 9.33135L23.8516 10.556ZM17.3166 11.2227L16.8243 10.0738L16.823 10.0743L17.3166 11.2227ZM12.24 15.516L11.1895 14.8386L11.1894 14.8386L12.24 15.516ZM13.6466 30.2477L14.5505 29.3843L14.55 29.3837L13.6466 30.2477ZM27.9283 31.6994L28.64 32.727L28.6403 32.7268L27.9283 31.6994ZM33.2561 26.9257C33.5118 26.2844 33.1992 25.5573 32.5579 25.3016C31.9167 25.0459 31.1895 25.3585 30.9339 25.9998L33.2561 26.9257ZM31.2734 18.3499C31.0997 19.0181 31.5006 19.7005 32.1688 19.8741C32.8369 20.0478 33.5193 19.6469 33.693 18.9787L31.2734 18.3499ZM34.8763 14.4254C35.05 13.7573 34.6491 13.0748 33.9809 12.9012C33.3128 12.7275 32.6303 13.1284 32.4567 13.7966L34.8763 14.4254ZM32.1503 19.8692C32.8157 20.053 33.5042 19.6627 33.6881 18.9972C33.8719 18.3318 33.4816 17.6433 32.8161 17.4595L32.1503 19.8692ZM28.4011 16.2395C27.7357 16.0556 27.0472 16.446 26.8634 17.1114C26.6795 17.7768 27.0699 18.4653 27.7353 18.6492L28.4011 16.2395ZM21.5833 18.6644C21.5833 17.9741 21.0237 17.4144 20.3333 17.4144C19.643 17.4144 19.0833 17.9741 19.0833 18.6644H21.5833ZM20.3333 23.6644H19.0833C19.0833 24.3548 19.643 24.9144 20.3333 24.9144V23.6644ZM25.3333 24.9144C26.0237 24.9144 26.5833 24.3548 26.5833 23.6644C26.5833 22.9741 26.0237 22.4144 25.3333 22.4144V24.9144ZM33.685 18.3204C33.1004 16.2781 32.024 14.4103 30.5502 12.8804L28.7498 14.615C29.9401 15.8505 30.8094 17.359 31.2816 19.0084L33.685 18.3204ZM30.5492 12.8794C28.807 11.0751 26.5607 9.83863 24.1042 9.33183L23.5991 11.7803C25.5626 12.1854 27.3581 13.1737 28.7507 14.616L30.5492 12.8794ZM24.1019 9.33135C21.657 8.83181 19.1179 9.09083 16.8243 10.0738L17.809 12.3717C19.6346 11.5893 21.6555 11.3831 23.6014 11.7807L24.1019 9.33135ZM16.823 10.0743C14.5133 11.0671 12.552 12.7258 11.1895 14.8386L13.2905 16.1935C14.3836 14.4984 15.9572 13.1676 17.8102 12.3711L16.823 10.0743ZM11.1894 14.8386C7.88094 19.9694 8.5236 26.6998 12.7433 31.1117L14.55 29.3837C11.1297 25.8076 10.6088 20.3523 13.2905 16.1935L11.1894 14.8386ZM12.7427 31.1111C16.9228 35.4872 23.6649 36.1725 28.64 32.727L27.2166 30.6718C23.2528 33.4169 17.881 32.8709 14.5505 29.3843L12.7427 31.1111ZM28.6403 32.7268C30.7155 31.2887 32.321 29.2709 33.2561 26.9257L30.9339 25.9998C30.1807 27.8886 28.8877 29.5137 27.2163 30.672L28.6403 32.7268ZM33.693 18.9787L34.8763 14.4254L32.4567 13.7966L31.2734 18.3499L33.693 18.9787ZM32.8161 17.4595L28.4011 16.2395L27.7353 18.6492L32.1503 19.8692L32.8161 17.4595ZM19.0833 18.6644V23.6644H21.5833V18.6644H19.0833ZM20.3333 24.9144H25.3333V22.4144H20.3333V24.9144Z" fill="#3C3C43" fill-opacity="0.3"/>
</svg>
